<svg height="512" viewBox="0 0 59 59" width="512" xmlns="http://www.w3.org/2000/svg"><g id="Page-1" fill="none" fill-rule="evenodd"><g id="060---Acorn" fill-rule="nonzero" transform="translate(-1)"><path id="Shape" d="m43.63 13.65s2.12-5 6.36-6.36c0 0 2.12.71 2.83 4.24-2.5967606.9545035-4.8259906 2.7042915-6.37 5l-2.45-.46z" fill="#603e26"/><path id="Shape" d="m56 26-22-22c-4.0433887-4.03168385-10.5866113-4.03168385-14.63 0l-4.37 4.42c-.3889894.38830462-.6075791.9153699-.6075791 1.465s.2185897 1.0766954.6075791 1.465l1.47 1.46-9.54 9.52c-6.59 6.59-7.1 14.53-4.39 20.49 3.66 8 2.2 12.44 2.2 12.44s4.39-1.46 12.44 2.2c6 2.71 13.9 2.2 20.49-4.39l9.52-9.52 1.46 1.45c.3883046.3889894.9153699.6075791 1.465.6075791s1.0766954-.2185897 1.465-.6075791l4.42-4.37c4.0316838-4.0433887 4.0316838-10.5866113 0-14.63z" fill="#a56a43"/><path id="Shape" d="m56 26-22-22c-4.0433887-4.03168385-10.5866113-4.03168385-14.63 0l-4.37 4.42c-.3889894.38830462-.6075791.9153699-.6075791 1.465s.2185897 1.0766954.6075791 1.465l33.65 33.65c.3883046.3889894.9153699.6075791 1.465.6075791s1.0766954-.2185897 1.465-.6075791l4.42-4.37c4.0316838-4.0433887 4.0316838-10.5866113 0-14.63z" fill="#805333"/><path id="Shape" d="m6.31 42.11c-.39289943-.0008198-.74891174-.231641-.91-.59-2.59-5.69-1.19-12 3.75-17l2.2-2.2c.3900375-.3877236 1.0199625-.3877236 1.41 0 .1893127.1877666.2957983.4433625.2957983.71s-.1064856.5222334-.2957983.71l-2.19 2.26c-4.33 4.29-5.57 9.79-3.35 14.7.21212413.4972478-.00933979 1.0730539-.5 1.3-.1272196.0655859-.26703604.1030976-.41.11z" fill="#cb8252"/><g fill="#603e26"><circle id="Oval" cx="37.97" cy="17.79" r="1"/><circle id="Oval" cx="35.14" cy="12.13" r="1"/><circle id="Oval" cx="31.61" cy="19.91" r="1"/><circle id="Oval" cx="35.14" cy="24.86" r="1"/><circle id="Oval" cx="29.48" cy="14.96" r="1"/><circle id="Oval" cx="23.12" cy="12.84" r="1"/><circle id="Oval" cx="30.9" cy="7.89" r="1"/><circle id="Oval" cx="25.24" cy="6.47" r="1"/><circle id="Oval" cx="42.21" cy="22.03" r="1"/><circle id="Oval" cx="47.87" cy="24.86" r="1"/><circle id="Oval" cx="40.09" cy="28.39" r="1"/><circle id="Oval" cx="45.04" cy="30.52" r="1"/><circle id="Oval" cx="47.16" cy="36.88" r="1"/><circle id="Oval" cx="52.11" cy="29.1" r="1"/><circle id="Oval" cx="53.53" cy="34.76" r="1"/></g><path id="Shape" d="m15 21.13c-.2623399-.0011046-.5137394-.1052558-.7-.29-.3877236-.3900375-.3877236-1.0199625 0-1.41l1.44-1.43c.3900375-.3877236 1.0199625-.3877236 1.41 0 .1893127.1877666.2957983.4433625.2957983.71s-.1064856.5222334-.2957983.71l-1.46 1.46c-.1900039.1677696-.4366281.2571262-.69.25z" fill="#cb8252"/></g></g></svg>